<svg width="136" height="137" viewBox="0 0 136 137" fill="none" xmlns="http://www.w3.org/2000/svg">
<path d="M136 68.5C136 106.332 105.555 137 68 137C30.4446 137 0 106.332 0 68.5C0 30.6685 30.4446 0 68 0C105.555 0 136 30.6685 136 68.5Z" fill="white"/>
<path d="M31.9603 111.704L24 19H111.5L103.529 111.689L67.6968 122L31.9603 111.704Z" fill="#1572B6"/>
<path d="M67.75 114.121L96.7064 105.789L103.518 26.5815H67.75V114.121Z" fill="#33A9DC"/>
<path d="M67.75 60.167H82.2459L83.2454 48.5243H67.75V37.1538H95.2178L94.9555 40.2033L92.2655 71.5374H67.75V60.167V60.167Z" fill="white"/>
<path d="M67.8174 89.6947L67.7677 89.7095L55.5685 86.2884L54.7888 77.2207H43.791L45.3257 95.0728L67.7642 101.54L67.8174 101.525V89.6947V89.6947Z" fill="#EBEBEB"/>
<path d="M81.314 71.0554L79.9955 86.281L67.7786 89.7021V101.532L90.2348 95.0728L90.4014 93.1526L92.3046 71.0554H81.314V71.0554Z" fill="white"/>
<path d="M67.7892 37.1538V48.5243H41.3279L41.1082 45.9677L40.6085 40.2033L40.3462 37.1538H67.7892V37.1538ZM67.7502 60.167V71.5374H55.7033L55.4836 68.9808L54.9874 63.2165L54.7251 60.167H67.7502V60.167Z" fill="#EBEBEB"/>
</svg>
