<svg width="136" height="137" viewBox="0 0 136 137" fill="none" xmlns="http://www.w3.org/2000/svg">
<path d="M136 68.5C136 106.332 105.555 137 68 137C30.4446 137 0 106.332 0 68.5C0 30.6685 30.4446 0 68 0C105.555 0 136 30.6685 136 68.5Z" fill="white"/>
<path d="M31.9632 112.704L24 20H111.5L103.526 112.689L67.6968 123L31.9632 112.704Z" fill="#E44F26"/>
<path d="M67.75 115.12L96.704 106.788L103.515 27.5814H67.75V115.12Z" fill="#F1662A"/>
<path d="M67.75 61.9614H53.2553L52.2559 50.3187H67.75V38.9482H40.2844L40.5467 42.0015L43.2365 73.3318H67.75V61.9614V61.9614ZM67.75 91.4893L67.7004 91.504L55.5021 88.0866L54.7225 79.0189H43.7256L45.2601 96.8673L67.7004 103.334L67.75 103.32V91.4893Z" fill="#EBEBEB"/>
<path d="M67.7112 61.9614V73.3318H81.1994L79.9307 88.0792L67.7112 91.5003V103.331L90.1692 96.8673L90.3322 94.9471L92.9051 65.0146L93.1744 61.9614H67.7112V61.9614ZM67.7112 38.9482V50.3187H94.1703L94.39 47.7658L94.8897 42.0015L95.152 38.9482H67.7112V38.9482Z" fill="white"/>
</svg>
