<svg width="136" height="137" viewBox="0 0 136 137" fill="none" xmlns="http://www.w3.org/2000/svg">
<path d="M136 68.5C136 106.332 105.555 137 68 137C30.4446 137 0 106.332 0 68.5C0 30.6685 30.4446 0 68 0C105.555 0 136 30.6685 136 68.5Z" fill="white"/>
<path d="M24 24H111.5V111.5H24V24Z" fill="#F5DE19"/>
<path d="M82.7782 92.3594C83.5237 93.8737 84.682 95.1466 86.1196 96.0312C87.5571 96.9159 89.2154 97.3763 90.9032 97.3594C94.3095 97.3594 96.4876 95.6562 96.4876 93.2969C96.4876 90.4844 94.2501 89.4781 90.5001 87.8375L88.4438 86.9563C82.5063 84.4281 78.5688 81.2625 78.5688 74.5688C78.5688 68.4031 83.2564 63.7063 90.6095 63.7063C92.9898 63.5344 95.3681 64.0671 97.4476 65.238C99.5271 66.4089 101.216 68.1662 102.303 70.2906L95.8751 74.4C95.4564 73.3466 94.7274 72.4454 93.7848 71.8159C92.8421 71.1863 91.7304 70.8582 90.597 70.875C90.1025 70.8255 89.6031 70.8795 89.1306 71.0337C88.6582 71.1879 88.223 71.4387 87.8529 71.7704C87.4827 72.102 87.1857 72.5071 86.9808 72.9598C86.7759 73.4126 86.6675 73.9031 86.6626 74.4C86.6626 76.8656 88.1907 77.8656 91.7188 79.4L93.7751 80.2813C100.763 83.2781 104.713 86.3313 104.713 93.1969C104.713 100.6 98.897 104.656 91.0876 104.656C88.0448 104.85 85.0109 104.159 82.352 102.667C79.6932 101.175 77.5229 98.9451 76.1032 96.2469L82.7782 92.3594ZM53.7313 93.0719C55.022 95.3625 56.197 97.3 59.022 97.3C61.722 97.3 63.4282 96.2437 63.4282 92.1344V64.175H71.6501V92.2437C71.6501 100.756 66.6501 104.631 59.372 104.631C56.7993 104.772 54.2443 104.131 52.0429 102.792C49.8414 101.454 48.0965 99.4801 47.0376 97.1313L53.7313 93.0719Z" fill="black"/>
</svg>
