<svg width="136" height="137" viewBox="0 0 136 137" fill="none" xmlns="http://www.w3.org/2000/svg">
<path d="M136 68.5C136 106.332 105.555 137 68 137C30.4446 137 0 106.332 0 68.5C0 30.6685 30.4446 0 68 0C105.555 0 136 30.6685 136 68.5Z" fill="white"/>
<path d="M120 67.5382C120 60.4668 111.455 53.7646 98.3528 49.6108C101.378 35.7749 100.035 24.7632 94.1127 21.2364C92.6776 20.4035 91.0534 19.9842 89.409 20.0222V24.8699C90.3746 24.8699 91.1514 25.07 91.8037 25.4392C94.6577 27.1381 95.898 33.5957 94.9324 41.9079C94.7006 43.9537 94.323 46.1062 93.8595 48.3032C89.4718 47.2075 85.0187 46.4156 80.5295 45.9328C77.8552 42.1093 74.9375 38.4751 71.796 35.0544C78.6412 28.4634 85.0658 24.8521 89.4347 24.8521V20C83.6582 20 76.1005 24.2651 68.4571 31.6611C60.8179 24.314 53.256 20.0889 47.4837 20.0889V24.9366C51.8312 24.9366 58.2772 28.5301 65.1225 35.0767C62.1827 38.2788 59.2429 41.9079 56.449 45.9328C51.9506 46.4103 47.4895 47.2098 43.0976 48.3255C42.6335 46.2431 42.2682 44.1385 42.0032 42.0191C41.0162 33.7024 42.235 27.2448 45.0718 25.5281C45.6984 25.1367 46.5181 24.9588 47.4837 24.9588V20.1112C45.7241 20.1112 44.1233 20.5026 42.7414 21.3253C36.8404 24.8521 35.5185 35.8372 38.5613 49.633C25.5018 53.8135 17 60.4891 17 67.5382C17 74.6096 25.5447 81.3118 38.6472 85.4612C35.6215 99.3015 36.9648 110.313 42.8873 113.836C44.2521 114.663 45.8486 115.054 47.6082 115.054C53.3847 115.054 60.9424 110.789 68.5858 103.393C76.225 110.745 83.7826 114.965 89.5592 114.965C91.2162 115.001 92.8528 114.581 94.3015 113.747C100.203 110.224 101.524 99.2392 98.4816 85.4434C111.498 81.2895 120 74.5873 120 67.5382ZM92.6621 53.0263C91.8466 55.9343 90.9014 58.8015 89.8296 61.6187C88.075 58.082 86.1484 54.6397 84.0573 51.3052C87.04 51.7633 89.9154 52.3281 92.6664 53.0263H92.6621ZM83.0487 76.1973C81.4768 79.0412 79.7887 81.8145 77.9889 84.5095C71.6898 85.0848 65.3544 85.0922 59.054 84.5317C55.4402 79.1823 52.2798 73.5189 49.6081 67.6049C52.2757 61.677 55.4227 55.9937 59.0154 50.6159C65.313 50.0393 71.6469 50.0304 77.946 50.5892C79.6884 53.1776 81.3922 55.9438 83.0273 58.8613C84.6238 61.7077 86.0744 64.5985 87.3962 67.516C86.0597 70.4688 84.6094 73.3649 83.0487 76.1973V76.1973ZM89.8296 73.3687C90.9626 76.2818 91.9325 79.1993 92.7265 82.0278C89.9798 82.726 87.0786 83.3131 84.0787 83.7667C86.1612 80.4019 88.0806 76.9316 89.8296 73.3687V73.3687ZM68.5429 96.5841C66.5902 94.4939 64.6375 92.1679 62.7062 89.6195C64.5946 89.7085 66.5258 89.7752 68.4785 89.7752C70.4527 89.7752 72.4054 89.7307 74.3152 89.6195C72.4269 92.1679 70.4742 94.4939 68.5429 96.5841ZM52.9212 83.7667C50.0276 83.3323 47.1548 82.7594 44.3122 82.05C45.089 79.2437 46.0546 76.3485 47.1447 73.4577C48.0073 75.1922 48.9128 76.9355 49.8999 78.6789C50.887 80.4179 51.8912 82.1168 52.9212 83.7667ZM68.4356 38.4923C70.3883 40.5825 72.341 42.9085 74.2723 45.4569C72.384 45.3679 70.4527 45.3012 68.5 45.3012C66.5258 45.3012 64.5731 45.3457 62.6633 45.4569C64.5517 42.9085 66.5044 40.5825 68.4356 38.4923ZM52.8998 51.3097C50.8178 54.6671 48.8984 58.13 47.149 61.6854C46.0469 58.85 45.0801 55.9602 44.2521 53.0263C46.9987 52.3503 49.8999 51.7633 52.8998 51.3097ZM33.9006 78.5455C26.4674 75.2633 21.6607 70.9538 21.6607 67.5382C21.6607 64.1226 26.4674 59.7908 33.9006 56.5309C35.7031 55.7259 37.6773 55.0054 39.7158 54.3339C40.9132 58.5945 42.4882 63.033 44.4366 67.5827C42.5971 71.8619 41.0413 76.2661 39.7802 80.7647C37.7865 80.125 35.8243 79.3844 33.9006 78.5455V78.5455ZM45.1962 109.633C42.3423 107.943 41.102 101.476 42.0676 93.1685C42.2994 91.1227 42.677 88.9657 43.1405 86.7687C47.252 87.8139 51.7453 88.6189 56.4705 89.1436C59.1449 92.967 62.0626 96.6012 65.204 100.022C58.3588 106.613 51.9342 110.224 47.5652 110.224C46.741 110.234 45.9273 110.032 45.1962 109.637V109.633ZM94.9967 93.0573C95.9838 101.37 94.765 107.832 91.9282 109.548C91.3016 109.94 90.4819 110.113 89.5163 110.113C85.1688 110.113 78.7227 106.524 71.8775 99.973C75.0059 96.5666 77.9039 92.9408 80.551 89.1214C85.0494 88.6439 89.5105 87.8444 93.9024 86.7287C94.3873 88.9257 94.7607 91.0338 94.9967 93.0573V93.0573ZM103.078 78.5455C101.275 79.3505 99.3013 80.071 97.2627 80.7425C95.9794 76.2209 94.4022 71.7945 92.5419 67.4937C94.4732 62.9707 96.0225 58.5545 97.1984 54.3116C99.1984 54.9535 101.168 55.6941 103.099 56.5309C110.533 59.8131 115.339 64.1226 115.339 67.5382C115.318 70.9538 110.511 75.2856 103.078 78.5455V78.5455Z" fill="#31ABCC"/>
<path d="M68.4787 77.4826C71.0238 77.4826 73.4646 76.4349 75.2642 74.57C77.0639 72.705 78.0749 70.1757 78.0749 67.5382C78.0749 64.9008 77.0639 62.3714 75.2642 60.5065C73.4646 58.6416 71.0238 57.5939 68.4787 57.5939C65.9337 57.5939 63.4929 58.6416 61.6932 60.5065C59.8936 62.3714 58.8826 64.9008 58.8826 67.5382C58.8826 70.1757 59.8936 72.705 61.6932 74.57C63.4929 76.4349 65.9337 77.4826 68.4787 77.4826V77.4826Z" fill="#31ABCC"/>
</svg>
