<svg width="136" height="137" viewBox="0 0 136 137" fill="none" xmlns="http://www.w3.org/2000/svg">
<path d="M136 68.5C136 106.332 105.555 137 68 137C30.4446 137 0 106.332 0 68.5C0 30.6685 30.4446 0 68 0C105.555 0 136 30.6685 136 68.5Z" fill="white"/>
<path d="M84.6308 85.1092C87.8573 84.7592 90.3073 81.8261 90.1979 78.3071C90.1434 76.6156 89.464 75.0118 88.302 73.8312C87.14 72.6505 85.5854 71.9846 83.9636 71.9728H83.7376C80.285 72.087 77.6126 75.138 77.722 78.775C77.8386 80.5364 78.5058 82.0582 79.5084 83.112C75.7204 90.9755 69.9309 96.7201 61.2429 101.529C55.344 104.816 49.219 105.987 43.0977 105.166C38.0847 104.462 34.1873 102.115 31.7373 98.2457C28.1754 92.5011 27.8436 86.281 30.8477 80.0647C32.9623 75.6098 36.3055 72.3228 38.4201 70.6832C37.8466 68.7136 37.3636 66.7166 36.9727 64.6989C20.8254 77.0174 22.4988 93.6728 27.3915 101.533C31.0665 107.399 38.5258 111.036 46.769 111.036C49.0194 111.052 51.263 110.776 53.4481 110.214C67.7033 107.285 78.5022 98.3674 84.6271 85.113L84.6308 85.1092ZM104.227 70.5652C95.7651 60.1261 83.2928 54.3777 69.0413 54.3777H67.2585C66.7508 53.3217 65.972 52.4335 65.009 51.8122C64.046 51.1909 62.9366 50.8608 61.8043 50.8587H61.5783C58.1294 50.9766 55.4533 54.0277 55.5664 57.6647C55.6757 61.1837 58.4611 63.9951 61.8007 63.9951H62.0267C63.2028 63.9316 64.338 63.524 65.3025 62.819C66.267 62.1139 67.0219 61.1398 67.4809 60.0082H69.4861C77.948 60.0082 85.9651 62.5875 93.2021 67.6321C98.7692 71.5049 102.78 76.5457 105.004 82.6478C106.899 87.5707 106.79 92.3793 104.785 96.488C101.664 102.704 96.4323 106.105 89.5271 106.105C85.0756 106.105 80.8428 104.698 78.6152 103.64C77.0124 105.132 75.3406 106.541 73.6058 107.863C78.3928 110.21 83.2928 111.5 87.9703 111.5C98.6599 111.5 106.564 105.284 109.572 99.0674C112.798 92.2652 112.576 80.5364 104.227 70.5652ZM47.6622 87.1027C47.7716 90.6217 50.557 93.437 53.8966 93.437H54.119C57.5715 93.3228 60.2439 90.2717 60.1346 86.6348C60.08 84.9434 59.4006 83.3395 58.2386 82.1589C57.0766 80.9783 55.522 80.3124 53.9002 80.3005H53.6742C53.4094 80.2823 53.1438 80.3211 52.894 80.4147C48.3294 72.4408 46.4372 63.763 47.1044 54.3777C47.5492 47.3397 49.7768 41.2413 53.6742 36.1967C56.9044 31.8598 63.1387 29.7484 67.3715 29.6304C79.173 29.3946 84.1823 44.8783 84.5178 51.0946C85.9651 51.4446 88.4151 52.2663 90.0849 52.8522C88.7469 33.8533 77.6162 24 66.9231 24C56.9044 24 47.6622 31.6239 43.9873 42.8848C38.8649 57.8967 42.2044 72.3228 48.4424 83.7016C47.8846 84.5234 47.5492 85.813 47.6622 87.1027V87.1027Z" fill="#7952B6"/>
</svg>
