<svg width="136" height="137" viewBox="0 0 136 137" fill="none" xmlns="http://www.w3.org/2000/svg">
<path d="M136 68.5C136 106.332 105.555 137 68 137C30.4446 137 0 106.332 0 68.5C0 30.6685 30.4446 0 68 0C105.555 0 136 30.6685 136 68.5Z" fill="white"/>
<path d="M24 67.75V111.5H111.5V24H24V67.75ZM94.5086 64.2609C96.6062 64.7548 98.5126 65.854 99.991 67.4219C100.789 68.275 101.984 69.8418 102.086 70.2273C102.113 70.3422 98.3121 72.8906 96.0043 74.3152C95.9195 74.3727 95.5777 74.0172 95.2059 73.4594C94.082 71.8215 92.898 71.1105 91.0906 70.982C88.441 70.8098 86.732 72.1934 86.7457 74.5148C86.7318 75.0829 86.8586 75.6456 87.1148 76.1527C87.7 77.3641 88.7965 78.0887 92.1844 79.557C98.4516 82.2477 101.129 84.0277 102.794 86.5488C104.659 89.368 105.071 93.8688 103.819 97.2293C102.425 100.861 98.9766 103.338 94.134 104.15C92.6383 104.421 89.0781 104.377 87.4676 104.079C83.9512 103.453 80.618 101.714 78.5672 99.4359C77.7551 98.5527 76.1883 96.2312 76.2895 96.0754C76.3332 96.018 76.6887 95.791 77.0879 95.5613L80.3363 93.6801L82.8574 92.2145L83.3852 92.9965C84.1262 94.1203 85.734 95.6598 86.7047 96.1711C89.4965 97.6531 93.3273 97.4398 95.2223 95.7445C95.9906 95.1047 96.4199 94.1203 96.3625 93.125C96.3625 92.1133 96.234 91.6594 95.7063 90.902C95.0227 89.934 93.6418 89.1082 89.6961 87.3992C85.1816 85.4469 83.2293 84.252 81.4656 82.3297C80.3554 81.0644 79.5342 79.5724 79.0594 77.9574C78.7312 76.7187 78.6465 73.6125 78.9035 72.3738C79.8305 68.0016 83.1336 64.9691 87.875 64.0723C89.4145 63.7742 93.002 63.8863 94.5113 64.2582L94.5086 64.2609ZM73.9734 67.9223L74.0008 71.4961H62.6066V103.868H54.5457V71.4961H43.168V67.9934C43.168 66.041 43.2117 64.4195 43.2664 64.3758C43.3102 64.3184 50.2309 64.291 58.6336 64.3047L73.9297 64.3484L73.9734 67.9223Z" fill="#199AD1"/>
</svg>
